<svg width="157" height="56" viewBox="0 0 157 56" fill="none" xmlns="http://www.w3.org/2000/svg">
<path d="M53.0059 20.5057C55.0823 20.5057 56.6903 20.9502 57.8299 21.8392C58.9852 22.7282 59.5628 24.0618 59.5628 25.8398C59.5628 27.6987 58.9852 29.0969 57.8299 30.0345C56.6747 30.9558 55.1369 31.4165 53.2166 31.4165H51.3198V37.2598H48.2287V20.5057H53.0059ZM52.9825 29.0161C54.0909 29.0161 54.9261 28.7817 55.4882 28.313C56.0502 27.828 56.3312 27.0037 56.3312 25.8398C56.3312 23.8516 55.215 22.8575 52.9825 22.8575H51.3198V29.0161H52.9825Z" fill="#00240F"/>
<path d="M64.9681 24.4336V37.2598H61.9707V24.4336H64.9681ZM63.446 17.9355C64.008 17.9355 64.4608 18.1214 64.8042 18.4932C65.1633 18.8488 65.3428 19.2933 65.3428 19.8268C65.3428 20.3602 65.1633 20.8047 64.8042 21.1603C64.4608 21.5159 64.008 21.6937 63.446 21.6937C62.8996 21.6937 62.4468 21.5159 62.0878 21.1603C61.7443 20.8047 61.5726 20.3602 61.5726 19.8268C61.5726 19.2933 61.7443 18.8488 62.0878 18.4932C62.4468 18.1214 62.8996 17.9355 63.446 17.9355Z" fill="#00240F"/>
<path d="M76.6355 24.4336V26.6642L70.6405 34.8352H76.7526L76.4481 37.2598H67.1981V35.0292L73.2165 26.8582H67.7133V24.4336H76.6355Z" fill="#00240F"/>
<path d="M87.1551 24.4336V26.6642L81.1602 34.8352H87.2722L86.9678 37.2598H77.7178V35.0292L83.7362 26.8582H78.233V24.4336H87.1551Z" fill="#00240F"/>
<path d="M98.4324 33.8654C98.4324 34.3665 98.5027 34.7382 98.6432 34.9807C98.7993 35.207 99.0413 35.3848 99.3691 35.5141L98.7369 37.5751C98.0343 37.5104 97.4567 37.3326 97.004 37.0416C96.5668 36.7507 96.2312 36.3062 95.997 35.7081C95.5755 36.3547 95.0447 36.8396 94.4046 37.1629C93.7801 37.47 93.0776 37.6235 92.297 37.6235C91.0637 37.6235 90.0879 37.2598 89.3698 36.5325C88.6516 35.8051 88.2926 34.8514 88.2926 33.6714C88.2926 32.2813 88.7765 31.2225 89.7445 30.4951C90.728 29.7516 92.1253 29.3798 93.9362 29.3798H95.4818V28.6524C95.4818 27.828 95.2945 27.2542 94.9198 26.9309C94.5607 26.5915 93.9753 26.4218 93.1634 26.4218C92.258 26.4218 91.1651 26.6481 89.885 27.1006L89.1824 24.9912C90.728 24.377 92.2267 24.0699 93.6786 24.0699C96.8478 24.0699 98.4324 25.5408 98.4324 28.4827V33.8654ZM93.0932 35.3686C94.108 35.3686 94.9042 34.8433 95.4818 33.7926V31.1983H94.2407C92.3048 31.1983 91.3369 31.9418 91.3369 33.4289C91.3369 34.0432 91.4852 34.52 91.7818 34.8595C92.0784 35.1989 92.5156 35.3686 93.0932 35.3686Z" fill="#00240F"/>
<path d="M118.405 20.5057L118.078 23.0515H113.862V37.2598H110.748V23.0515H106.392V20.5057H118.405Z" fill="#00240F"/>
<path d="M123.33 24.4336V37.2598H120.332V24.4336H123.33ZM121.807 17.9355C122.369 17.9355 122.822 18.1214 123.166 18.4932C123.525 18.8488 123.704 19.2933 123.704 19.8268C123.704 20.3602 123.525 20.8047 123.166 21.1603C122.822 21.5159 122.369 21.6937 121.807 21.6937C121.261 21.6937 120.808 21.5159 120.449 21.1603C120.106 20.8047 119.934 20.3602 119.934 19.8268C119.934 19.2933 120.106 18.8488 120.449 18.4932C120.808 18.1214 121.261 17.9355 121.807 17.9355Z" fill="#00240F"/>
<path d="M140.078 24.0699C141.078 24.0699 141.874 24.4255 142.467 25.1367C143.06 25.8318 143.357 26.7774 143.357 27.9735V37.2598H140.359V28.4584C140.359 27.0845 139.907 26.3975 139.001 26.3975C138.517 26.3975 138.096 26.5591 137.737 26.8824C137.393 27.1896 137.034 27.6745 136.659 28.3372V37.2598H133.662V28.4584C133.662 27.0845 133.209 26.3975 132.304 26.3975C131.804 26.3975 131.375 26.5591 131.016 26.8824C130.672 27.1896 130.313 27.6745 129.939 28.3372V37.2598H126.941V24.4336H129.541L129.775 26.1066C130.711 24.7488 131.906 24.0699 133.358 24.0699C134.076 24.0699 134.692 24.2638 135.208 24.6518C135.738 25.0235 136.121 25.5489 136.355 26.2278C136.855 25.5327 137.401 24.9993 137.994 24.6275C138.603 24.2557 139.298 24.0699 140.078 24.0699Z" fill="#00240F"/>
<path d="M157 30.5436C157 30.7053 156.977 31.1255 156.93 31.8044H149.155C149.249 33.0491 149.561 33.9381 150.092 34.4715C150.623 35.0049 151.325 35.2717 152.2 35.2717C152.746 35.2717 153.261 35.1828 153.745 35.0049C154.229 34.811 154.744 34.52 155.291 34.1321L156.532 35.9021C155.158 37.0497 153.628 37.6235 151.942 37.6235C150.053 37.6235 148.593 37.0255 147.563 35.8293C146.548 34.6332 146.041 33.0006 146.041 30.9316C146.041 29.6223 146.259 28.4504 146.697 27.4159C147.134 26.3652 147.766 25.5489 148.593 24.967C149.421 24.3689 150.404 24.0699 151.544 24.0699C153.277 24.0699 154.62 24.6437 155.572 25.7913C156.524 26.9228 157 28.5069 157 30.5436ZM154.026 29.6465C154.026 27.3997 153.222 26.2763 151.614 26.2763C150.881 26.2763 150.303 26.5591 149.881 27.1249C149.475 27.6745 149.233 28.5635 149.155 29.792H154.026V29.6465Z" fill="#00240F"/>
<path d="M42.154 40.7441L29.4134 28L42.1541 15.2557C42.3007 15.1091 42.3831 14.9102 42.3831 14.7028C42.3831 14.4954 42.3007 14.2965 42.1541 14.1498C39.4155 11.4105 35.9264 9.54507 32.128 8.78931C28.3295 8.03356 24.3923 8.42144 20.8143 9.90393C17.2362 11.3864 14.178 13.8969 12.0263 17.118C9.87466 20.339 8.72619 24.1259 8.72614 27.9999C8.72609 31.8739 9.87451 35.6609 12.0262 38.882C14.1778 42.1031 17.236 44.6136 20.8141 46.0961C24.3922 47.5786 28.3294 47.9665 32.1279 47.2107C35.9264 46.4549 39.4155 44.5894 42.154 41.85C42.3006 41.7034 42.383 41.5045 42.383 41.2971C42.383 41.0897 42.3006 40.8907 42.154 40.7441ZM33.8291 34.6287L32.518 34.6288C32.3106 34.6288 32.1118 34.7113 31.9652 34.858C31.8186 35.0047 31.7362 35.2036 31.7362 35.4111C31.7363 35.6185 31.8187 35.8174 31.9654 35.9641C32.112 36.1107 32.3109 36.1931 32.5183 36.193L34.4594 36.193C34.5802 36.193 34.6993 36.165 34.8074 36.111C34.9155 36.0571 35.0096 35.9788 35.0823 35.8823L38.0208 38.8217C37.7833 38.91 37.5196 38.9838 37.2484 39.0596C36.7831 39.1733 36.3305 39.3339 35.8975 39.5389C35.455 39.0341 34.8698 38.6756 34.2193 38.5106C33.5688 38.3456 32.8835 38.3819 32.254 38.6148C31.6246 38.8477 31.0806 39.2661 30.694 39.8149C30.3074 40.3636 30.0963 41.0167 30.0887 41.688C30.0101 41.6913 29.9314 41.6966 29.8523 41.7055C29.2551 41.7724 28.7071 42.0042 28.1773 42.2281L28.0062 42.3002C27.5191 42.5041 27.0495 42.6834 26.6582 42.6394C26.2304 42.5915 25.7656 42.2574 25.2733 41.9039C24.8053 41.5675 24.3213 41.2196 23.7516 41.0206C23.1932 40.8255 22.606 40.7979 22.0376 40.7706C21.4254 40.7415 20.8474 40.7137 20.4704 40.4768C20.1176 40.2541 19.8472 39.7575 19.5609 39.2312C19.2821 38.7182 18.9937 38.1879 18.5579 37.752C18.1222 37.3161 17.592 37.0276 17.0792 36.7487C16.553 36.4624 16.0563 36.1919 15.8339 35.839C15.5967 35.4621 15.5695 34.8833 15.5401 34.2712C15.5132 33.7029 15.4853 33.1153 15.2903 32.5568C15.0914 31.9869 14.7437 31.5028 14.4073 31.0347C14.0535 30.5425 13.7196 30.0775 13.6717 29.6492C13.6281 29.2582 13.8073 28.7885 14.0111 28.3013L14.0838 28.1289C14.3077 27.599 14.5392 27.0512 14.6059 26.4542C14.6723 25.861 14.5681 25.2781 14.4672 24.7145C14.3599 24.1139 14.2584 23.5467 14.403 23.1324C14.5431 22.7308 14.9707 22.3535 15.4233 21.9541C15.8572 21.5713 16.3057 21.1756 16.6295 20.6613C16.9419 20.1651 17.099 19.6014 17.2511 19.0564C17.4166 18.4633 17.5729 17.903 17.8934 17.5824C18.214 17.2617 18.7741 17.1055 19.367 16.9399C19.9119 16.7878 20.4754 16.6306 20.9715 16.3181C21.4856 15.9942 21.8816 15.5459 22.2639 15.1118C22.6633 14.6588 23.0405 14.2312 23.442 14.091C23.8565 13.9462 24.4236 14.0478 25.0242 14.1553C25.5872 14.2557 26.1701 14.3603 26.7631 14.294C27.3603 14.2271 27.9084 13.9953 28.4381 13.7714L28.6092 13.6993C29.0963 13.4954 29.5663 13.3157 29.9573 13.3601C30.3851 13.408 30.8499 13.7421 31.3422 14.0956C31.8102 14.432 32.2941 14.7799 32.8639 14.9789C33.4222 15.174 34.0094 15.2016 34.5779 15.2289C34.8847 15.2374 35.1909 15.2629 35.4949 15.3052C34.7382 16.6417 34.7705 18.3324 35.6019 19.5978L27.755 27.447C27.6084 27.5936 27.526 27.7925 27.526 28C27.526 28.2074 27.6084 28.4063 27.755 28.5529L33.8291 34.6287ZM34.3509 40.8879C33.9517 41.3407 33.5744 41.7684 33.1729 41.9087C32.7743 42.0479 32.2345 41.9593 31.6597 41.8567C31.6315 41.4956 31.7162 41.1347 31.9019 40.8238C32.0877 40.5129 32.3654 40.2674 32.6967 40.1212C33.028 39.9749 33.3964 39.9352 33.7512 40.0075C34.106 40.0798 34.4296 40.2606 34.6773 40.5248C34.5664 40.6447 34.4583 40.7667 34.3512 40.8881L34.3509 40.8879ZM36.7452 18.4542C36.5849 18.1081 36.5032 17.7308 36.506 17.3494C36.5089 16.968 36.5961 16.5919 36.7615 16.2483C36.8601 16.4123 36.956 16.5884 37.0541 16.7688C37.212 17.0593 37.374 17.3548 37.5631 17.6361L36.7452 18.4542ZM28.3078 46.0229C25.3778 46.0229 22.4921 45.3081 19.9006 43.9406C17.3092 42.573 15.0903 40.5939 13.4362 38.1749C11.782 35.7558 10.7426 32.9698 10.4081 30.0582C10.0735 27.1465 10.4538 24.1972 11.516 21.4659C12.5783 18.7345 14.2904 16.3034 16.504 14.3834C18.7177 12.4633 21.366 11.1122 24.2196 10.4472C27.0731 9.78216 30.0457 9.82324 32.8798 10.5669C35.7139 11.3105 38.3239 12.7343 40.4837 14.7147L38.6967 16.5022C38.6066 16.3495 38.5182 16.1872 38.4279 16.0211C38.0756 15.3733 37.6763 14.6394 36.978 14.1992C36.2531 13.7428 35.4024 13.7024 34.6519 13.6668C34.1743 13.6441 33.7232 13.6225 33.379 13.5023C33.0229 13.378 32.6496 13.1097 32.2545 12.8256C31.6504 12.3912 30.9656 11.899 30.1314 11.8055C29.3685 11.7198 28.6628 11.9816 28.006 12.2566L27.8295 12.3308C27.3827 12.5198 26.9605 12.6982 26.5891 12.7399C26.2219 12.7809 25.7739 12.7009 25.2996 12.6158C24.563 12.484 23.7284 12.3349 22.9266 12.6146C22.1387 12.8897 21.5823 13.5207 21.0912 14.0772C20.7673 14.4445 20.4619 14.7909 20.1381 14.9947C19.8352 15.1855 19.4037 15.306 18.9467 15.4335C18.221 15.6361 17.3984 15.8657 16.7876 16.4766C16.1769 17.0875 15.9474 17.9103 15.7449 18.6362C15.6174 19.0933 15.4969 19.525 15.3059 19.8284C15.1021 20.1522 14.7555 20.458 14.3885 20.7816C13.8321 21.2727 13.2013 21.8292 12.9264 22.6174C12.6467 23.4191 12.796 24.2539 12.9278 24.9905C13.0126 25.4651 13.0928 25.9133 13.0517 26.2808C13.0101 26.652 12.8319 27.0739 12.6431 27.5205L12.5683 27.6984C12.2933 28.3556 12.0321 29.0612 12.1176 29.8239C12.211 30.6585 12.7031 31.3434 13.1374 31.9478C13.4212 32.3431 13.6895 32.7165 13.8139 33.0727C13.934 33.4168 13.9553 33.8681 13.9783 34.346C14.0139 35.0969 14.0543 35.9479 14.5106 36.6729C14.9507 37.372 15.6846 37.771 16.332 38.1233C16.7663 38.3595 17.1763 38.5826 17.4522 38.8586C17.7281 39.1345 17.9511 39.5447 18.1874 39.9791C18.4509 40.4639 18.7408 40.9969 19.1626 41.4189C19.3061 41.5636 19.4653 41.6918 19.6374 41.8011C20.3622 42.2575 21.2129 42.2979 21.9634 42.3335C22.4411 42.3562 22.8922 42.3778 23.2364 42.498C23.5924 42.6223 23.9657 42.8907 24.3608 43.1747C24.965 43.6091 25.6497 44.1013 26.4839 44.1948C27.2468 44.2805 27.9525 44.0187 28.6093 43.7438L28.7858 43.6695C29.2326 43.4806 29.6548 43.3021 30.0262 43.2604C30.3935 43.2193 30.8415 43.2995 31.316 43.3844C32.0525 43.5163 32.8869 43.6655 33.6887 43.3857C34.4767 43.1105 35.0331 42.4795 35.5241 41.9231C35.848 41.5559 36.1534 41.2094 36.4772 41.0056C36.7801 40.8148 37.2117 40.6943 37.669 40.5664C38.166 40.4277 38.7085 40.2762 39.1971 39.9983L40.4837 41.2852C37.1674 44.3435 32.8184 46.0357 28.3078 46.0229V46.0229Z" fill="#EC0000"/>
<path d="M27.015 18.5282C26.5766 18.0897 26.0181 17.7911 25.4101 17.6701C24.8021 17.5492 24.1719 17.6113 23.5992 17.8486C23.0264 18.0859 22.5369 18.4877 22.1925 19.0033C21.8481 19.5189 21.6643 20.125 21.6643 20.7451C21.6643 21.3652 21.8481 21.9714 22.1925 22.487C22.5369 23.0026 23.0264 23.4044 23.5992 23.6417C24.1719 23.879 24.8021 23.9411 25.4101 23.8201C26.0181 23.6992 26.5766 23.4006 27.015 22.9621C27.6019 22.3737 27.9316 21.5764 27.9316 20.7451C27.9316 19.9139 27.6019 19.1166 27.015 18.5282V18.5282ZM23.688 21.8561C23.4683 21.6364 23.3187 21.3564 23.2581 21.0517C23.1975 20.7469 23.2286 20.431 23.3475 20.1439C23.4664 19.8568 23.6677 19.6114 23.926 19.4387C24.1843 19.2661 24.488 19.174 24.7986 19.174C25.1093 19.174 25.413 19.2661 25.6713 19.4387C25.9296 19.6114 26.1309 19.8568 26.2498 20.1439C26.3687 20.431 26.3998 20.7469 26.3392 21.0517C26.2786 21.3564 26.129 21.6364 25.9093 21.8561C25.6145 22.1504 25.2151 22.3156 24.7986 22.3156C24.3822 22.3156 23.9828 22.1504 23.688 21.8561V21.8561Z" fill="#05A84B"/>
<path d="M20.7351 28.5304C20.4244 28.2195 20.0285 28.0079 19.5975 27.9221C19.1666 27.8364 18.7198 27.8803 18.3138 28.0485C17.9078 28.2167 17.5608 28.5016 17.3167 28.867C17.0725 29.2325 16.9422 29.6622 16.9421 30.1017C16.9421 30.5413 17.0724 30.971 17.3165 31.3365C17.5606 31.702 17.9075 31.9869 18.3135 32.1551C18.7195 32.3234 19.1662 32.3675 19.5972 32.2818C20.0282 32.1961 20.4241 31.9845 20.7349 31.6737C21.1511 31.2566 21.3848 30.6914 21.3849 30.1021C21.3849 29.5128 21.1512 28.9475 20.7351 28.5304ZM18.6044 30.6617C18.4938 30.551 18.4184 30.41 18.3879 30.2564C18.3573 30.1029 18.373 29.9438 18.4329 29.7991C18.4928 29.6545 18.5942 29.5309 18.7243 29.4439C18.8545 29.357 19.0075 29.3106 19.164 29.3106C19.3204 29.3106 19.4734 29.357 19.6035 29.444C19.7337 29.531 19.8351 29.6546 19.8949 29.7992C19.9548 29.9439 19.9705 30.103 19.9399 30.2565C19.9094 30.4101 19.834 30.5511 19.7233 30.6618C19.5748 30.8099 19.3736 30.893 19.1639 30.8929C18.9542 30.8929 18.7531 30.8097 18.6046 30.6615L18.6044 30.6617Z" fill="#05A84B"/>
<path d="M25.6763 39.443C25.9558 39.7226 26.312 39.9131 26.6997 39.9902C27.0874 40.0674 27.4893 40.0278 27.8546 39.8764C28.2198 39.7251 28.532 39.4688 28.7517 39.14C28.9713 38.8112 29.0885 38.4247 29.0885 38.0292C29.0885 37.6338 28.9713 37.2472 28.7517 36.9184C28.532 36.5896 28.2198 36.3333 27.8546 36.182C27.4893 36.0307 27.0874 35.9911 26.6997 36.0682C26.312 36.1454 25.9558 36.3358 25.6763 36.6154C25.302 36.9907 25.0918 37.4991 25.0918 38.0292C25.0918 38.5593 25.302 39.0677 25.6763 39.443V39.443ZM27.5931 37.5256C27.6927 37.6252 27.7605 37.7521 27.7879 37.8902C27.8154 38.0283 27.8013 38.1715 27.7474 38.3016C27.6935 38.4317 27.6023 38.5429 27.4852 38.6211C27.3681 38.6994 27.2305 38.7411 27.0897 38.7411C26.9489 38.7411 26.8113 38.6993 26.6943 38.6211C26.5772 38.5428 26.486 38.4316 26.4321 38.3015C26.3783 38.1714 26.3642 38.0282 26.3917 37.8901C26.4191 37.752 26.4869 37.6251 26.5865 37.5256C26.7201 37.3923 26.9011 37.3175 27.0898 37.3176C27.2784 37.3176 27.4594 37.3925 27.5929 37.5258L27.5931 37.5256Z" fill="#05A84B"/>
<path d="M24.8746 31.5961C24.8746 31.6989 24.8948 31.8006 24.9341 31.8955C24.9734 31.9905 25.031 32.0767 25.1037 32.1494C25.1763 32.222 25.2625 32.2796 25.3574 32.319C25.4523 32.3583 25.554 32.3785 25.6567 32.3785C25.7594 32.3786 25.8611 32.3583 25.956 32.319C26.0509 32.2797 26.1371 32.2221 26.2097 32.1495C26.2824 32.0768 26.34 31.9906 26.3793 31.8957C26.4186 31.8008 26.4388 31.699 26.4388 31.5963L26.4389 29.6538C26.4389 29.4463 26.3565 29.2473 26.2098 29.1006C26.0631 28.9539 25.8642 28.8714 25.6567 28.8714C25.4493 28.8714 25.2504 28.9538 25.1037 29.1005C24.957 29.2473 24.8746 29.4463 24.8746 29.6538L24.8746 31.5961Z" fill="#EC0000"/>
<path d="M29.6875 18.9359C29.6875 19.1434 29.7699 19.3424 29.9165 19.4891C30.0632 19.6359 30.2621 19.7183 30.4696 19.7183C30.677 19.7183 30.876 19.6359 31.0226 19.4892C31.1693 19.3425 31.2517 19.1435 31.2517 18.936L31.2517 16.9936C31.2517 16.7861 31.1693 16.5871 31.0227 16.4404C30.876 16.2937 30.6771 16.2112 30.4696 16.2112C30.2622 16.2112 30.0633 16.2936 29.9166 16.4403C29.7699 16.587 29.6875 16.786 29.6875 16.9935L29.6875 18.9359Z" fill="#EC0000"/>
<path d="M18.8017 23.0717C18.8017 22.8642 18.7193 22.6652 18.5727 22.5184C18.426 22.3717 18.2271 22.2893 18.0196 22.2893C17.8122 22.2893 17.6132 22.3717 17.4666 22.5184C17.3199 22.6651 17.2375 22.8641 17.2375 23.0716L17.2375 25.0139C17.2374 25.2214 17.3198 25.4204 17.4665 25.5671C17.6131 25.7139 17.8121 25.7963 18.0195 25.7963C18.2269 25.7963 18.4259 25.7139 18.5725 25.5672C18.7192 25.4205 18.8016 25.2216 18.8017 25.0141L18.8017 23.0717Z" fill="#EC0000"/>
<path d="M22.2318 35.744C22.2318 35.6413 22.2116 35.5396 22.1723 35.4447C22.133 35.3497 22.0754 35.2635 22.0028 35.1908C21.9302 35.1182 21.844 35.0606 21.7491 35.0212C21.6542 34.9819 21.5525 34.9617 21.4498 34.9617C21.3471 34.9616 21.2454 34.9819 21.1505 35.0212C21.0556 35.0605 20.9694 35.1181 20.8967 35.1907C20.8241 35.2634 20.7665 35.3496 20.7272 35.4445C20.6879 35.5394 20.6676 35.6412 20.6676 35.7439L20.6674 37.6862C20.6674 37.8937 20.7498 38.0927 20.8965 38.2394C21.0431 38.3861 21.2421 38.4686 21.4495 38.4686C21.6569 38.4686 21.8559 38.3862 22.0026 38.2394C22.1493 38.0927 22.2317 37.8937 22.2317 37.6862L22.2318 35.744Z" fill="#EC0000"/>
</svg>
